PathFileType	4	(X/Y/Z)	./resultDataOpenSim/trcMotMarkerGrf/sub10/qtm-15-02.trc
DataRate	CameraRate	NumFrames	NumMarkers	Units	OrigDataRate	OrigDataStartFrame	OrigNumFrames
250.000000	250.000000	8	24	m	250.000000	1	469
Frame#	Time	L.Toe.Tip			R.Toe.Tip			L.Ankle.Lat			R.Ankle.Lat			L.Ankle.Med			R.Ankle.Med			L.Heel			R.Heel			L.Knee.Lat			R.Knee.Lat			L.Knee.Med			R.Knee.Med			L.Thigh.Upper			R.Thigh.Upper			L.ASIS			R.ASIS			V.Sacral			L.Acromium			R.Acromium			C7			L.Elbow			R.Elbow			L.Wrist.Lat			R.Wrist.Lat
		X1	Y1	Z1	X2	Y2	Z2	X3	Y3	Z3	X4	Y4	Z4	X5	Y5	Z5	X6	Y6	Z6	X7	Y7	Z7	X8	Y8	Z8	X9	Y9	Z9	X10	Y10	Z10	X11	Y11	Z11	X12	Y12	Z12	X13	Y13	Z13	X14	Y14	Z14	X15	Y15	Z15	X16	Y16	Z16	X17	Y17	Z17	X18	Y18	Z18	X19	Y19	Z19	X20	Y20	Z20	X21	Y21	Z21	X22	Y22	Z22	X23	Y23	Z23	X24	Y24	Z24

1	0	-1.5055977	0.037555634	-0.13052127	-0.86244134	0.12208163	0.042856185	-1.6310632	0.075198123	-0.16212001	-0.9970557	0.074481786	0.077065718	-1.6212635	0.09722354	-0.080308131	-0.98960759	0.11336494	-0.0021189392	NaN	NaN	NaN	-1.0265234	0.033881841	0.025245123	-1.4858403	0.42960157	-0.19675922	-1.168194	0.44156602	0.10373173	-1.4856084	0.40973138	-0.076245291	-1.1640779	0.43804877	-0.026598912	-1.3741413	0.8110692	-0.25705844	-1.3136052	0.82441323	0.12846932	-1.2973089	0.91039028	-0.19892649	-1.2597055	0.9233346	0.046649852	-1.4742123	0.92711974	-0.045005401	-1.2608935	1.3758064	-0.23409215	-1.3325204	1.3871404	0.077965212	-1.3746176	1.4177348	-0.10151062	-1.269949	1.0308175	-0.31889244	-1.521971	1.0995218	0.12958074	-1.0566405	0.9364047	-0.23103749	-1.4785857	0.88217421	0.23475964
2	0.004	-1.505547	0.03754536	-0.13049956	-0.85522698	0.12183414	0.043010422	-1.6308748	0.075557696	-0.16228831	-0.98968103	0.074061126	0.077496699	-1.6207914	0.09810625	-0.08002053	-0.98238417	0.11314834	-0.0016111594	NaN	NaN	NaN	-1.0194283	0.033509046	0.025876657	-1.4820612	0.42918937	-0.19655211	-1.1611024	0.44136146	0.10430059	-1.4814594	0.40924252	-0.075827033	-1.1581342	0.43767865	-0.026029032	-1.3693767	0.81036975	-0.25675614	-1.3062568	0.82336082	0.12898627	-1.2917699	0.90942848	-0.19891143	-1.2534191	0.92189738	0.04678708	-1.4684909	0.92551691	-0.043953543	-1.2554208	1.3749585	-0.23343096	-1.3273573	1.3861323	0.078573662	-1.3695962	1.416829	-0.10096659	-1.2631367	1.0302928	-0.31920121	-1.5172408	1.0986497	0.13070006	-1.0497745	0.93671284	-0.23046544	-1.4738827	0.88162474	0.23629746
3	0.008	-1.5054924	0.037539424	-0.13048319	-0.84842095	0.12135618	0.04317801	-1.6305327	0.076079173	-0.16241095	-0.98270194	0.073569333	0.077985899	-1.6200902	0.099024275	-0.079773161	-0.97551246	0.11277816	-0.0010784135	NaN	NaN	NaN	-1.0127076	0.033041099	0.026562803	-1.478203	0.42881786	-0.19633036	-1.1541296	0.44114685	0.10482117	-1.4772184	0.40874597	-0.075436197	-1.1520438	0.43742811	-0.025482386	-1.3645484	0.80967567	-0.25636355	-1.2990153	0.82247427	0.12950088	-1.2862457	0.90850268	-0.19891497	-1.2471234	0.92051007	0.046958495	-1.462725	0.92398568	-0.042942841	-1.2499678	1.3741831	-0.2327586	-1.3220986	1.3851544	0.079200412	-1.3645408	1.4159702	-0.10034392	-1.2563647	1.0297858	-0.31950662	-1.5125299	1.0977282	0.13184742	-1.0429526	0.93705375	-0.22989694	-1.4692002	0.88109742	0.23787117
4	0.012	-1.5054328	0.03754013	-0.130475	-0.84222192	0.12052122	0.043384265	-1.6304872	0.076858676	-0.16247791	-0.97633116	0.072960639	0.078562303	-1.6191559	0.099993505	-0.079591801	-0.96917182	0.11215942	-0.00050958089	NaN	NaN	NaN	-1.0065834	0.032416588	0.027328355	-1.4742108	0.42850073	-0.19608565	-1.1473082	0.44092478	0.10527345	-1.4728937	0.40824895	-0.075073771	-1.1457148	0.43733869	-0.024978693	-1.3596182	0.80899384	-0.25584052	-1.2919327	0.82182732	0.12999665	-1.2806864	0.90763509	-0.19891457	-1.2407925	0.91921893	0.047182355	-1.4568781	0.92258172	-0.041982362	-1.2445259	1.3735141	-0.23206248	-1.3167224	1.3842381	0.079872817	-1.3594461	1.4151726	-0.099678753	-1.2496481	1.029338	-0.31978403	-1.5077307	1.0967632	0.13297869	-1.0361722	0.93744455	-0.22934102	-1.4645341	0.88059976	0.23948734
5	0.016	-1.5053638	0.037548378	-0.13047778	-0.83662629	0.11931664	0.043666776	-1.6312404	0.077888563	-0.16252129	-0.97059457	0.072220433	0.079222272	-1.6181178	0.10104141	-0.079494228	-0.96338636	0.11127667	8.755754e-05	NaN	NaN	NaN	-1.0011155	0.031623736	0.028171203	-1.4700873	0.42823481	-0.19581888	-1.1406043	0.4407168	0.10566434	-1.4685442	0.40776541	-0.074732712	-1.1391525	0.43738026	-0.02453499	-1.3546029	0.80833488	-0.25521349	-1.2850508	0.82140723	0.13045529	-1.2750608	0.90681956	-0.19889015	-1.2344183	0.91806582	0.047455349	-1.4509434	0.92134321	-0.041049287	-1.2390761	1.372956	-0.23133215	-1.3112825	1.3834027	0.080601151	-1.3543359	1.4144365	-0.099034247	-1.2429956	1.0289937	-0.32000164	-1.5026526	1.0957911	0.13398655	-1.0293958	0.93790496	-0.22880106	-1.4598421	0.88013207	0.24112883
6	0.02	-1.5052759	0.037565776	-0.13049648	-0.83154777	0.11778066	0.044061424	-1.6323289	0.079148607	-0.16255839	-0.96543963	0.071349027	0.079937818	-1.6170943	0.10220971	-0.079487811	-0.95812661	0.11016185	0.0006886667	NaN	NaN	NaN	-0.99626866	0.030682048	0.029075895	-1.4658712	0.42803068	-0.1955415	-1.1340058	0.44053427	0.10600083	-1.4641623	0.40730063	-0.074421172	-1.1324071	0.43750862	-0.024157918	-1.3495375	0.80771442	-0.25453069	-1.2783811	0.82117893	0.13089274	-1.2693843	0.90603335	-0.19884848	-1.2280034	0.91708427	0.047758363	-1.4449283	0.92029115	-0.040118377	-1.2335962	1.3725084	-0.23056032	-1.3058458	1.3826521	0.08136961	-1.3492142	1.4137693	-0.098375192	-1.2364115	1.0287685	-0.32014552	-1.4971898	1.0948257	0.13480834	-1.0225844	0.9384592	-0.2282677	-1.4550655	0.8797044	0.24279111
7	0.024	-1.5051641	0.0375944	-0.13053628	-0.8269157	0.11595492	0.044584385	-1.63281	0.080632231	-0.16261897	-0.9608253	0.070351247	0.080661467	-1.6161267	0.10351689	-0.079564415	-0.95336733	0.10885627	0.0012620653	NaN	NaN	NaN	-0.99198404	0.029622652	0.029997591	-1.4615826	0.42790972	-0.19526905	-1.1275576	0.44036151	0.10628421	-1.4596961	0.40684761	-0.074149802	-1.1255207	0.43769838	-0.023838358	-1.3444304	0.80715556	-0.25381729	-1.271837	0.82112282	0.1313639	-1.2636728	0.90526575	-0.19879451	-1.2215508	0.91629984	0.048070106	-1.4388415	0.91942728	-0.039193904	-1.2280715	1.3721714	-0.22974098	-1.300455	1.3819838	0.082163322	-1.3440536	1.4131886	-0.09758425	-1.2299041	1.0286522	-0.32022556	-1.4914168	1.0938753	0.13548885	-1.0157726	0.9390943	-0.22774783	-1.450193	0.8793379	0.24448086
8	0.028	-1.5050314	0.037634851	-0.13060027	-0.82269895	0.11387469	0.045223694	-1.6324137	0.082297607	-0.1627504	-0.95672833	0.069235922	0.081345568	-1.6151453	0.10495464	-0.079711671	-0.94907504	0.10739615	0.001784381	NaN	NaN	NaN	-0.98821013	0.028477451	0.03085836	-1.4571969	0.42787151	-0.19500336	-1.1212726	0.44018588	0.10653298	-1.4551276	0.40640333	-0.073911178	-1.1185166	0.43793979	-0.02355628	-1.3392553	0.80667939	-0.25308147	-1.2653637	0.82120957	0.13189764	-1.2579343	0.90452009	-0.19872642	-1.215073	0.91572465	0.048382945	-1.4326864	0.91873609	-0.038307829	-1.2224987	1.3719436	-0.22886831	-1.2951257	1.3813953	0.08299287	-1.3388229	1.4127094	-0.096580299	-1.2234838	1.0286318	-0.32026572	-1.4854838	1.0929624	0.13611196	-1.0090688	0.93975403	-0.22727411	-1.4452614	0.8790475	0.24618929
